<mxfile host="app.diagrams.net" modified="2024-04-25T13:35:03.617Z" agent="Mozilla/5.0 (Windows NT 10.0; Win64; x64) AppleWebKit/537.36 (KHTML, like Gecko) Chrome/124.0.0.0 Safari/537.36 Edg/124.0.0.0" etag="LmCcLjGALmNlF2JY9hpf" version="24.2.5" type="device">
  <diagram name="Страница — 1" id="9QMO-3Vn35tjlKNgn4it">
    <mxGraphModel dx="2026" dy="1153" grid="0" gridSize="10" guides="1" tooltips="1" connect="1" arrows="1" fold="1" page="1" pageScale="1" pageWidth="827" pageHeight="1169" math="0" shadow="0">
      <root>
        <mxCell id="0" />
        <mxCell id="1" parent="0" />
        <mxCell id="N2g0QXO3JPSmWL7c2zoG-5" style="rounded=0;orthogonalLoop=1;jettySize=auto;html=1;exitX=1;exitY=0.3333333333333333;exitDx=0;exitDy=0;exitPerimeter=0;entryX=0;entryY=0.5;entryDx=0;entryDy=0;" edge="1" parent="1" source="N2g0QXO3JPSmWL7c2zoG-1" target="N2g0QXO3JPSmWL7c2zoG-3">
          <mxGeometry relative="1" as="geometry" />
        </mxCell>
        <mxCell id="N2g0QXO3JPSmWL7c2zoG-15" style="rounded=0;orthogonalLoop=1;jettySize=auto;html=1;exitX=1;exitY=0.3333333333333333;exitDx=0;exitDy=0;exitPerimeter=0;entryX=0;entryY=0.5;entryDx=0;entryDy=0;" edge="1" parent="1" source="N2g0QXO3JPSmWL7c2zoG-1" target="N2g0QXO3JPSmWL7c2zoG-10">
          <mxGeometry relative="1" as="geometry" />
        </mxCell>
        <mxCell id="N2g0QXO3JPSmWL7c2zoG-16" style="rounded=0;orthogonalLoop=1;jettySize=auto;html=1;exitX=1;exitY=0.3333333333333333;exitDx=0;exitDy=0;exitPerimeter=0;entryX=0;entryY=0.5;entryDx=0;entryDy=0;" edge="1" parent="1" source="N2g0QXO3JPSmWL7c2zoG-1" target="N2g0QXO3JPSmWL7c2zoG-11">
          <mxGeometry relative="1" as="geometry" />
        </mxCell>
        <mxCell id="N2g0QXO3JPSmWL7c2zoG-17" style="rounded=0;orthogonalLoop=1;jettySize=auto;html=1;exitX=1;exitY=0.3333333333333333;exitDx=0;exitDy=0;exitPerimeter=0;entryX=0;entryY=0.5;entryDx=0;entryDy=0;" edge="1" parent="1" source="N2g0QXO3JPSmWL7c2zoG-1" target="N2g0QXO3JPSmWL7c2zoG-12">
          <mxGeometry relative="1" as="geometry" />
        </mxCell>
        <mxCell id="N2g0QXO3JPSmWL7c2zoG-40" style="rounded=0;orthogonalLoop=1;jettySize=auto;html=1;exitX=1;exitY=0.3333333333333333;exitDx=0;exitDy=0;exitPerimeter=0;entryX=0;entryY=0.5;entryDx=0;entryDy=0;" edge="1" parent="1" source="N2g0QXO3JPSmWL7c2zoG-1" target="N2g0QXO3JPSmWL7c2zoG-19">
          <mxGeometry relative="1" as="geometry" />
        </mxCell>
        <mxCell id="N2g0QXO3JPSmWL7c2zoG-41" style="rounded=0;orthogonalLoop=1;jettySize=auto;html=1;exitX=1;exitY=0.3333333333333333;exitDx=0;exitDy=0;exitPerimeter=0;entryX=0;entryY=0.5;entryDx=0;entryDy=0;" edge="1" parent="1" source="N2g0QXO3JPSmWL7c2zoG-1" target="N2g0QXO3JPSmWL7c2zoG-20">
          <mxGeometry relative="1" as="geometry" />
        </mxCell>
        <mxCell id="N2g0QXO3JPSmWL7c2zoG-1" value="Пользователь" style="shape=umlActor;verticalLabelPosition=bottom;verticalAlign=top;html=1;outlineConnect=0;" vertex="1" parent="1">
          <mxGeometry x="70" y="521" width="30" height="60" as="geometry" />
        </mxCell>
        <mxCell id="N2g0QXO3JPSmWL7c2zoG-8" style="edgeStyle=orthogonalEdgeStyle;rounded=0;orthogonalLoop=1;jettySize=auto;html=1;exitX=1;exitY=0.5;exitDx=0;exitDy=0;entryX=0;entryY=0.5;entryDx=0;entryDy=0;dashed=1;" edge="1" parent="1" source="N2g0QXO3JPSmWL7c2zoG-3" target="N2g0QXO3JPSmWL7c2zoG-7">
          <mxGeometry relative="1" as="geometry" />
        </mxCell>
        <mxCell id="N2g0QXO3JPSmWL7c2zoG-3" value="Ввод значений" style="ellipse;whiteSpace=wrap;html=1;" vertex="1" parent="1">
          <mxGeometry x="305" y="413" width="128" height="71" as="geometry" />
        </mxCell>
        <mxCell id="N2g0QXO3JPSmWL7c2zoG-7" value="Проверка" style="ellipse;whiteSpace=wrap;html=1;" vertex="1" parent="1">
          <mxGeometry x="532" y="413" width="128" height="71" as="geometry" />
        </mxCell>
        <mxCell id="N2g0QXO3JPSmWL7c2zoG-10" value="Очистить" style="ellipse;whiteSpace=wrap;html=1;" vertex="1" parent="1">
          <mxGeometry x="305" y="502" width="128" height="71" as="geometry" />
        </mxCell>
        <mxCell id="N2g0QXO3JPSmWL7c2zoG-11" value="Справка" style="ellipse;whiteSpace=wrap;html=1;" vertex="1" parent="1">
          <mxGeometry x="305" y="598" width="128" height="71" as="geometry" />
        </mxCell>
        <mxCell id="N2g0QXO3JPSmWL7c2zoG-12" value="Выход" style="ellipse;whiteSpace=wrap;html=1;" vertex="1" parent="1">
          <mxGeometry x="305" y="690" width="128" height="71" as="geometry" />
        </mxCell>
        <mxCell id="N2g0QXO3JPSmWL7c2zoG-18" value="include" style="text;html=1;align=center;verticalAlign=middle;whiteSpace=wrap;rounded=0;" vertex="1" parent="1">
          <mxGeometry x="447" y="413" width="60" height="30" as="geometry" />
        </mxCell>
        <mxCell id="N2g0QXO3JPSmWL7c2zoG-38" style="rounded=0;orthogonalLoop=1;jettySize=auto;html=1;exitX=1;exitY=0.5;exitDx=0;exitDy=0;entryX=0;entryY=0.5;entryDx=0;entryDy=0;dashed=1;" edge="1" parent="1" source="N2g0QXO3JPSmWL7c2zoG-19" target="N2g0QXO3JPSmWL7c2zoG-28">
          <mxGeometry relative="1" as="geometry" />
        </mxCell>
        <mxCell id="N2g0QXO3JPSmWL7c2zoG-19" value="Расчёт разницы" style="ellipse;whiteSpace=wrap;html=1;" vertex="1" parent="1">
          <mxGeometry x="307" y="804" width="128" height="71" as="geometry" />
        </mxCell>
        <mxCell id="N2g0QXO3JPSmWL7c2zoG-39" style="rounded=0;orthogonalLoop=1;jettySize=auto;html=1;exitX=1;exitY=0.5;exitDx=0;exitDy=0;entryX=0;entryY=0.5;entryDx=0;entryDy=0;dashed=1;" edge="1" parent="1" source="N2g0QXO3JPSmWL7c2zoG-20" target="N2g0QXO3JPSmWL7c2zoG-32">
          <mxGeometry relative="1" as="geometry" />
        </mxCell>
        <mxCell id="N2g0QXO3JPSmWL7c2zoG-20" value="Поиск максимального значения" style="ellipse;whiteSpace=wrap;html=1;" vertex="1" parent="1">
          <mxGeometry x="307" y="890" width="128" height="71" as="geometry" />
        </mxCell>
        <mxCell id="N2g0QXO3JPSmWL7c2zoG-28" value="Вывод разницы" style="ellipse;whiteSpace=wrap;html=1;" vertex="1" parent="1">
          <mxGeometry x="542" y="804" width="128" height="71" as="geometry" />
        </mxCell>
        <mxCell id="N2g0QXO3JPSmWL7c2zoG-31" value="include" style="text;html=1;align=center;verticalAlign=middle;whiteSpace=wrap;rounded=0;" vertex="1" parent="1">
          <mxGeometry x="459" y="799" width="60" height="30" as="geometry" />
        </mxCell>
        <mxCell id="N2g0QXO3JPSmWL7c2zoG-32" value="Вывод разницы" style="ellipse;whiteSpace=wrap;html=1;" vertex="1" parent="1">
          <mxGeometry x="542" y="890" width="128" height="71" as="geometry" />
        </mxCell>
        <mxCell id="N2g0QXO3JPSmWL7c2zoG-34" value="include" style="text;html=1;align=center;verticalAlign=middle;whiteSpace=wrap;rounded=0;" vertex="1" parent="1">
          <mxGeometry x="459" y="890" width="60" height="30" as="geometry" />
        </mxCell>
      </root>
    </mxGraphModel>
  </diagram>
</mxfile>
